<svg width="24" height="25" viewBox="0 0 24 25" fill="none" xmlns="http://www.w3.org/2000/svg">
<path fill-rule="evenodd" clip-rule="evenodd" d="M12 8.67272C9.64264 8.67272 7.71423 10.6013 7.71423 12.9584C7.71423 15.3158 9.64264 17.2441 12 17.2441C14.3574 17.2441 16.2857 15.3158 16.2857 12.9584C16.2857 10.6013 14.3574 8.67272 12 8.67272ZM22.2288 11.8156C21.7143 7.07286 17.8856 3.24417 13.1428 2.72994V0.958435H10.8572V2.72988C6.11443 3.24411 2.28573 7.07281 1.77123 11.8155H0V14.1013H1.77118C2.28568 18.844 6.11432 22.6727 10.8571 23.1872V24.9584H13.1428V23.1873C17.8855 22.6728 21.7142 18.8441 22.2288 14.1013H24V11.8156H22.2288ZM12 20.9584C7.5998 20.9584 3.99996 17.3585 3.99996 12.9584C3.99996 8.55829 7.5998 4.95845 12 4.95845C16.4001 4.95845 19.9999 8.55835 19.9999 12.9584C19.9999 17.3585 16.4001 20.9584 12 20.9584Z" fill="#00BCD4"/>
</svg>
