<svg width="24" height="25" viewBox="0 0 24 25" fill="none" xmlns="http://www.w3.org/2000/svg">
<path fill-rule="evenodd" clip-rule="evenodd" d="M12 8.35858C13.366 8.35858 14.6554 8.89564 15.6306 9.87085C16.6058 10.846 17.1429 12.1354 17.1429 13.5014C17.1429 14.4454 16.906 15.3245 16.4387 16.1143C15.992 16.8695 15.3439 17.5091 14.5645 17.9639L13.7143 18.4601V19.4445V23.2442H10.2857V19.4445V18.4601L9.43548 17.9639C7.84511 17.0358 6.85714 15.3259 6.85714 13.5014C6.85714 12.1354 7.3942 10.8461 8.36941 9.87085C9.34463 8.89564 10.634 8.35858 12 8.35858ZM13.1428 0.958439C12.8002 0.958439 10.8572 0.958439 10.8572 0.958439V4.38701H13.1428V0.958439ZM20.0569 3.84401L18 5.90153L19.5999 7.50144L21.6573 5.44451L20.0569 3.84401ZM3.94307 3.84401L2.34262 5.44446L4.40009 7.50139L6 5.90153L3.94307 3.84401ZM12 6.6443C8.22879 6.6443 5.14286 9.73022 5.14286 13.5014C5.14286 16.016 6.5145 18.2442 8.57143 19.4445V24.9584H15.4286V19.4445C17.4855 18.2442 18.8571 16.0728 18.8571 13.5014C18.8571 9.73017 15.7712 6.6443 12 6.6443ZM24 12.3585H20.5714V14.6443H24V12.3585ZM3.42857 12.3585H0V14.6443H3.42857V12.3585Z" fill="#F38D21"/>
</svg>
