<svg width="24" height="24" viewBox="0 0 25 25" fill="none" xmlns="http://www.w3.org/2000/svg">
<path fill-rule="evenodd" clip-rule="evenodd" d="M7.36416 9.96282L5.68427 11.6427L11.0843 17.0427L23.0843 5.04271L21.4044 3.36282L11.0843 13.6226L7.36416 9.96282ZM21.8843 12.2427C21.8843 17.5226 17.5641 21.8427 12.2843 21.8427C7.00444 21.8427 2.68427 17.5226 2.68427 12.2427C2.68427 6.96282 7.00439 2.64271 12.2843 2.64271C13.1843 2.64271 14.0843 2.76282 14.9245 3.00276L16.7843 1.14271C15.4044 0.542706 13.9044 0.242706 12.2843 0.242706C5.68427 0.242706 0.284271 5.64271 0.284271 12.2427C0.284271 18.8427 5.68427 24.2427 12.2843 24.2427C18.8843 24.2427 24.2843 18.8427 24.2843 12.2427H21.8843Z" fill="#2196F3"/>
</svg>
