<svg width="211" height="39" viewBox="0 0 211 39" fill="none" xmlns="http://www.w3.org/2000/svg">
<rect x="0.5" y="0.5" width="210" height="37.5" rx="4.5" fill="white" stroke="#2196F3"/>
<path fill-rule="evenodd" clip-rule="evenodd" d="M188.5 20.6416L194.334 15.1023C194.478 14.9632 194.715 14.9665 194.863 15.1089L195.887 16.0995C196.035 16.242 196.038 16.4739 195.894 16.613L188.771 23.378C188.698 23.4509 188.597 23.4841 188.5 23.4774C188.4 23.4807 188.302 23.4476 188.229 23.378L181.106 16.613C180.962 16.4739 180.965 16.242 181.113 16.0995L182.137 15.1089C182.285 14.9665 182.522 14.9632 182.666 15.1023L188.5 20.6416Z" fill="black" fill-opacity="0.38"/>
<path fill-rule="evenodd" clip-rule="evenodd" d="M24.75 9.5C19.3652 9.5 15 13.8652 15 19.25C15 24.6348 19.3652 29 24.75 29C30.1348 29 34.5 24.6348 34.5 19.25C34.5 13.8652 30.1348 9.5 24.75 9.5ZM23.7399 27.5468C21.89 27.3253 20.1784 26.4972 18.8406 25.1594C17.2621 23.5809 16.3928 21.4823 16.3928 19.25C16.3928 17.2405 17.0977 15.3395 18.3898 13.8285C18.423 14.2277 18.5052 14.6557 18.4842 14.9617C18.4073 16.0771 18.2972 16.7751 18.9501 17.7162C19.2045 18.0827 19.2669 18.6081 19.3907 19.0323C19.5118 19.4473 19.9955 19.665 20.3291 19.9207C21.0022 20.4368 21.6461 21.0366 22.3598 21.4908C22.8309 21.7905 23.1251 21.9396 22.9872 22.5145C22.8762 22.9768 22.8452 23.2615 22.6061 23.6734C22.5331 23.799 22.8816 24.607 22.9975 24.723C23.349 25.0744 23.6978 25.3968 24.0809 25.7132C24.6748 26.204 24.0232 26.8416 23.7399 27.5468ZM30.6594 25.1594C29.4578 26.3609 27.9548 27.1509 26.3208 27.4601C26.5524 26.8874 26.9647 26.3787 27.3472 26.0837C27.6798 25.827 28.0965 25.3333 28.2703 24.9422C28.4439 24.5517 28.6739 24.2131 28.9067 23.8539C29.2379 23.343 28.0902 22.5725 27.7183 22.4111C26.8814 22.0477 26.2514 21.5575 25.5076 21.0341C24.9777 20.6613 23.9018 21.2288 23.3035 20.9677C22.4841 20.6099 21.809 19.9882 21.0967 19.4518C20.3618 18.8983 20.3973 18.2529 20.3973 17.4363C20.973 17.4575 21.792 17.277 22.1742 17.74C22.2948 17.8861 22.7095 18.5388 22.9871 18.3069C23.2139 18.1174 22.8191 17.3577 22.7428 17.1791C22.5082 16.63 23.2774 16.4158 23.6711 16.0434C24.1848 15.5576 25.2869 14.7957 25.1998 14.4475C25.1127 14.0992 24.0971 13.1126 23.5006 13.2665C23.4112 13.2896 22.6242 14.1148 22.4721 14.2443C22.4761 13.975 22.4802 13.7057 22.4843 13.4363C22.4869 13.2663 22.167 13.0917 22.1819 12.982C22.2194 12.7048 22.9911 12.2017 23.183 11.9809C23.0485 11.8969 22.5896 11.5027 22.4507 11.5605C22.1145 11.7007 21.7347 11.7973 21.3984 11.9374C21.3984 11.8207 21.3842 11.7112 21.3674 11.603C22.0412 11.3046 22.7543 11.0972 23.4913 10.9865L24.1515 11.2518L24.6176 11.805L25.0828 12.2847L25.4894 12.4157L26.1353 11.8065L25.9688 11.3717V10.9808C27.2461 11.1663 28.4524 11.6428 29.5088 12.3777C29.3198 12.3946 29.1121 12.4224 28.8778 12.4522C28.781 12.395 28.6568 12.369 28.5513 12.3292C28.8575 12.9875 29.1768 13.6366 29.5012 14.2861C29.8478 14.9799 30.6165 15.7241 30.7515 16.4564C30.9106 17.3197 30.8002 18.1038 30.8872 19.1195C30.9711 20.0975 31.9899 21.2088 31.9899 21.2088C31.9899 21.2088 32.4604 21.369 32.8517 21.3132C32.487 22.7562 31.7392 24.0795 30.6594 25.1594Z" fill="#0D47A1"/>
<g clip-path="url(#clip0_34_68)">
<path d="M54.6768 24.251V26H47.8828V24.251H54.6768ZM48.5068 13.2031V26H46.3008V13.2031H48.5068ZM53.7891 18.5469V20.2695H47.8828V18.5469H53.7891ZM54.6328 13.2031V14.9609H47.8828V13.2031H54.6328ZM58.3682 18.5205V26H56.25V16.4902H58.2451L58.3682 18.5205ZM57.9902 20.8936L57.3047 20.8848C57.3105 20.2109 57.4043 19.5928 57.5859 19.0303C57.7734 18.4678 58.0312 17.9844 58.3594 17.5801C58.6934 17.1758 59.0918 16.8652 59.5547 16.6484C60.0176 16.4258 60.5332 16.3145 61.1016 16.3145C61.5586 16.3145 61.9717 16.3789 62.3408 16.5078C62.7158 16.6309 63.0352 16.833 63.2988 17.1143C63.5684 17.3955 63.7734 17.7617 63.9141 18.2129C64.0547 18.6582 64.125 19.2061 64.125 19.8564V26H61.998V19.8477C61.998 19.3906 61.9307 19.0303 61.7959 18.7666C61.667 18.4971 61.4766 18.3066 61.2246 18.1953C60.9785 18.0781 60.6709 18.0195 60.3018 18.0195C59.9385 18.0195 59.6133 18.0957 59.3262 18.248C59.0391 18.4004 58.7959 18.6084 58.5967 18.8721C58.4033 19.1357 58.2539 19.4404 58.1484 19.7861C58.043 20.1318 57.9902 20.501 57.9902 20.8936ZM72.3779 16.4902H74.3027V25.7363C74.3027 26.5918 74.1211 27.3184 73.7578 27.916C73.3945 28.5137 72.8877 28.9678 72.2373 29.2783C71.5869 29.5947 70.834 29.7529 69.9785 29.7529C69.6152 29.7529 69.2109 29.7002 68.7656 29.5947C68.3262 29.4893 67.8984 29.3193 67.4824 29.085C67.0723 28.8564 66.7295 28.5547 66.4541 28.1797L67.4473 26.9316C67.7871 27.3359 68.1621 27.6318 68.5723 27.8193C68.9824 28.0068 69.4131 28.1006 69.8643 28.1006C70.3506 28.1006 70.7637 28.0098 71.1035 27.8281C71.4492 27.6523 71.7158 27.3916 71.9033 27.0459C72.0908 26.7002 72.1846 26.2783 72.1846 25.7803V18.6436L72.3779 16.4902ZM65.918 21.3506V21.166C65.918 20.4453 66.0059 19.7891 66.1816 19.1973C66.3574 18.5996 66.6094 18.0869 66.9375 17.6592C67.2656 17.2256 67.6641 16.8945 68.1328 16.666C68.6016 16.4316 69.1318 16.3145 69.7236 16.3145C70.3389 16.3145 70.8633 16.4258 71.2969 16.6484C71.7363 16.8711 72.1025 17.1904 72.3955 17.6064C72.6885 18.0166 72.917 18.5088 73.0811 19.083C73.251 19.6514 73.377 20.2842 73.459 20.9814V21.5703C73.3828 22.25 73.2539 22.8711 73.0723 23.4336C72.8906 23.9961 72.6504 24.4824 72.3516 24.8926C72.0527 25.3027 71.6836 25.6191 71.2441 25.8418C70.8105 26.0645 70.2979 26.1758 69.7061 26.1758C69.126 26.1758 68.6016 26.0557 68.1328 25.8154C67.6699 25.5752 67.2715 25.2383 66.9375 24.8047C66.6094 24.3711 66.3574 23.8613 66.1816 23.2754C66.0059 22.6836 65.918 22.042 65.918 21.3506ZM68.0361 21.166V21.3506C68.0361 21.7842 68.0771 22.1885 68.1592 22.5635C68.2471 22.9385 68.3789 23.2695 68.5547 23.5566C68.7363 23.8379 68.9648 24.0605 69.2402 24.2246C69.5215 24.3828 69.8525 24.4619 70.2334 24.4619C70.7314 24.4619 71.1387 24.3564 71.4551 24.1455C71.7773 23.9346 72.0234 23.6504 72.1934 23.293C72.3691 22.9297 72.4922 22.5254 72.5625 22.0801V20.4893C72.5273 20.1436 72.4541 19.8213 72.3428 19.5225C72.2373 19.2236 72.0938 18.9629 71.9121 18.7402C71.7305 18.5117 71.502 18.3359 71.2266 18.2129C70.9512 18.084 70.626 18.0195 70.251 18.0195C69.8701 18.0195 69.5391 18.1016 69.2578 18.2656C68.9766 18.4297 68.7451 18.6553 68.5635 18.9424C68.3877 19.2295 68.2559 19.5635 68.168 19.9443C68.0801 20.3252 68.0361 20.7324 68.0361 21.166ZM78.7676 12.5V26H76.6406V12.5H78.7676ZM83.3555 16.4902V26H81.2285V16.4902H83.3555ZM81.0879 13.9941C81.0879 13.6719 81.1934 13.4053 81.4043 13.1943C81.6211 12.9775 81.9199 12.8691 82.3008 12.8691C82.6758 12.8691 82.9717 12.9775 83.1885 13.1943C83.4053 13.4053 83.5137 13.6719 83.5137 13.9941C83.5137 14.3105 83.4053 14.5742 83.1885 14.7852C82.9717 14.9961 82.6758 15.1016 82.3008 15.1016C81.9199 15.1016 81.6211 14.9961 81.4043 14.7852C81.1934 14.5742 81.0879 14.3105 81.0879 13.9941ZM91.0107 23.4248C91.0107 23.2139 90.958 23.0234 90.8525 22.8535C90.7471 22.6777 90.5449 22.5195 90.2461 22.3789C89.9531 22.2383 89.5195 22.1094 88.9453 21.9922C88.4414 21.8809 87.9785 21.749 87.5566 21.5967C87.1406 21.4385 86.7832 21.248 86.4844 21.0254C86.1855 20.8027 85.9541 20.5391 85.79 20.2344C85.626 19.9297 85.5439 19.5781 85.5439 19.1797C85.5439 18.793 85.6289 18.4268 85.7988 18.0811C85.9688 17.7354 86.2119 17.4307 86.5283 17.167C86.8447 16.9033 87.2285 16.6953 87.6797 16.543C88.1367 16.3906 88.6465 16.3145 89.209 16.3145C90.0059 16.3145 90.6885 16.4492 91.2568 16.7188C91.8311 16.9824 92.2705 17.3428 92.5752 17.7998C92.8799 18.251 93.0322 18.7607 93.0322 19.3291H90.9141C90.9141 19.0771 90.8496 18.8428 90.7207 18.626C90.5977 18.4033 90.4102 18.2246 90.1582 18.0898C89.9062 17.9492 89.5898 17.8789 89.209 17.8789C88.8457 17.8789 88.5439 17.9375 88.3037 18.0547C88.0693 18.166 87.8936 18.3125 87.7764 18.4941C87.665 18.6758 87.6094 18.875 87.6094 19.0918C87.6094 19.25 87.6387 19.3936 87.6973 19.5225C87.7617 19.6455 87.8672 19.7598 88.0137 19.8652C88.1602 19.9648 88.3594 20.0586 88.6113 20.1465C88.8691 20.2344 89.1914 20.3193 89.5781 20.4014C90.3047 20.5537 90.9287 20.75 91.4502 20.9902C91.9775 21.2246 92.3818 21.5293 92.6631 21.9043C92.9443 22.2734 93.085 22.7422 93.085 23.3105C93.085 23.7324 92.9941 24.1191 92.8125 24.4707C92.6367 24.8164 92.3789 25.1182 92.0391 25.376C91.6992 25.6279 91.292 25.8242 90.8174 25.9648C90.3486 26.1055 89.8213 26.1758 89.2354 26.1758C88.374 26.1758 87.6445 26.0234 87.0469 25.7188C86.4492 25.4082 85.9951 25.0127 85.6846 24.5322C85.3799 24.0459 85.2275 23.542 85.2275 23.0205H87.2754C87.2988 23.4131 87.4072 23.7266 87.6006 23.9609C87.7998 24.1895 88.0459 24.3564 88.3389 24.4619C88.6377 24.5615 88.9453 24.6113 89.2617 24.6113C89.6426 24.6113 89.9619 24.5615 90.2197 24.4619C90.4775 24.3564 90.6738 24.2158 90.8086 24.04C90.9434 23.8584 91.0107 23.6533 91.0107 23.4248ZM97.0312 12.5V26H94.9219V12.5H97.0312ZM96.6621 20.8936L95.9766 20.8848C95.9824 20.2285 96.0732 19.6221 96.249 19.0654C96.4307 18.5088 96.6826 18.0254 97.0049 17.6152C97.333 17.1992 97.7256 16.8799 98.1826 16.6572C98.6396 16.4287 99.1465 16.3145 99.7031 16.3145C100.172 16.3145 100.594 16.3789 100.969 16.5078C101.35 16.6367 101.678 16.8447 101.953 17.1318C102.229 17.4131 102.437 17.7822 102.577 18.2393C102.724 18.6904 102.797 19.2412 102.797 19.8916V26H100.67V19.874C100.67 19.417 100.603 19.0537 100.468 18.7842C100.339 18.5146 100.148 18.3213 99.8965 18.2041C99.6445 18.0811 99.3369 18.0195 98.9736 18.0195C98.5928 18.0195 98.2559 18.0957 97.9629 18.248C97.6758 18.4004 97.4355 18.6084 97.2422 18.8721C97.0488 19.1357 96.9023 19.4404 96.8027 19.7861C96.709 20.1318 96.6621 20.501 96.6621 20.8936ZM113.687 19.6895V21.377H109.037V19.6895H113.687ZM128.61 24.251V26H121.816V24.251H128.61ZM122.44 13.2031V26H120.234V13.2031H122.44ZM127.723 18.5469V20.2695H121.816V18.5469H127.723ZM128.566 13.2031V14.9609H121.816V13.2031H128.566ZM132.302 18.5205V26H130.184V16.4902H132.179L132.302 18.5205ZM131.924 20.8936L131.238 20.8848C131.244 20.2109 131.338 19.5928 131.52 19.0303C131.707 18.4678 131.965 17.9844 132.293 17.5801C132.627 17.1758 133.025 16.8652 133.488 16.6484C133.951 16.4258 134.467 16.3145 135.035 16.3145C135.492 16.3145 135.905 16.3789 136.274 16.5078C136.649 16.6309 136.969 16.833 137.232 17.1143C137.502 17.3955 137.707 17.7617 137.848 18.2129C137.988 18.6582 138.059 19.2061 138.059 19.8564V26H135.932V19.8477C135.932 19.3906 135.864 19.0303 135.729 18.7666C135.601 18.4971 135.41 18.3066 135.158 18.1953C134.912 18.0781 134.604 18.0195 134.235 18.0195C133.872 18.0195 133.547 18.0957 133.26 18.248C132.973 18.4004 132.729 18.6084 132.53 18.8721C132.337 19.1357 132.188 19.4404 132.082 19.7861C131.977 20.1318 131.924 20.501 131.924 20.8936Z" fill="black"/>
</g>
<defs>
<clipPath id="clip0_34_68">
<rect width="136" height="21" fill="white" transform="translate(45 9)"/>
</clipPath>
</defs>
</svg>
