<svg width="24" height="19" viewBox="0 0 24 19" fill="none" xmlns="http://www.w3.org/2000/svg">
<path fill-rule="evenodd" clip-rule="evenodd" d="M16.6771 9.51078L12.1657 12.9424C12.1016 12.9371 12.0374 12.9317 11.9733 12.9317C11.0272 12.9317 10.2628 13.6961 10.2628 14.6422C10.2628 15.5883 11.0272 16.3526 11.9733 16.3526C12.9194 16.3526 13.6837 15.5883 13.6837 14.6422C13.6837 14.578 13.6784 14.5139 13.6731 14.4498L17.1047 9.93839L16.6771 9.51078Z" fill="#651FFF"/>
<path fill-rule="evenodd" clip-rule="evenodd" d="M11.9733 0.958439C5.36125 0.958439 0 6.31969 0 12.9317C0 14.7705 0.416927 16.5077 1.15457 18.0631H3.08419C2.26102 16.6413 1.79065 15.0377 1.72116 13.3593H3.42094V12.5041H1.72116C1.7853 10.9647 2.18619 9.48405 2.88641 8.15309L4.35635 9.00298L4.78396 8.26L3.31403 7.41545C3.70958 6.79541 4.17996 6.20744 4.71448 5.67292C5.25969 5.13305 5.85301 4.65733 6.48374 4.25643L7.32829 5.71568L8.07127 5.28806L7.22673 3.82882C8.55234 3.13394 10.0169 2.74374 11.5457 2.6796V4.37937H12.4009V2.6796C13.9296 2.74374 15.3942 3.13929 16.7198 3.82882L15.8806 5.28806L16.6236 5.71568L17.4682 4.25643C18.0989 4.65733 18.6922 5.13305 19.2374 5.67292C19.7719 6.20744 20.237 6.79006 20.6379 7.41545L19.1733 8.26L19.6009 9.00298L21.0708 8.15309C21.771 9.48405 22.1719 10.9647 22.2361 12.5041H20.5256V13.3593H22.2254C22.1559 15.0377 21.6855 16.6413 20.8624 18.0631H22.792C23.5296 16.5077 23.9465 14.7705 23.9465 12.9317C23.9465 6.31969 18.5853 0.958439 11.9733 0.958439Z" fill="#651FFF"/>
</svg>
